<?xml version="1.0" standalone="no"?>
<!DOCTYPE svg PUBLIC "-//W3C//DTD SVG 20010904//EN"
 "http://www.w3.org/TR/2001/REC-SVG-20010904/DTD/svg10.dtd">
<svg version="1.0" xmlns="http://www.w3.org/2000/svg"
 width="342.000000pt" height="342.000000pt" viewBox="0 0 342.000000 342.000000"
 preserveAspectRatio="xMidYMid meet">
<metadata>
Created by potrace 1.14, written by Peter Selinger 2001-2017
</metadata>
<g transform="translate(0.000000,342.000000) scale(0.100000,-0.100000)"
fill="#000000" stroke="none">
<path d="M1710 3300 c0 -5 -7 -10 -16 -10 -9 0 -29 -13 -44 -30 -15 -16 -33
-30 -39 -30 -7 0 -47 -36 -91 -80 -44 -44 -82 -80 -85 -80 -3 0 -5 9 -5 20 0
39 -32 19 -140 -90 -60 -60 -112 -110 -115 -110 -3 0 -5 14 -5 30 0 17 -4 30
-10 30 -5 0 -10 14 -10 30 0 17 -4 30 -10 30 -5 0 -10 9 -10 20 0 11 -4 20
-10 20 -5 0 -10 7 -10 16 0 15 -23 44 -34 44 -3 0 -6 -9 -6 -20 0 -11 -2 -20
-5 -20 -11 0 -75 69 -75 80 0 16 -26 40 -42 40 -8 0 -20 9 -28 20 -8 11 -22
20 -32 20 -11 0 -18 -7 -18 -20 0 -13 -7 -20 -20 -20 -11 0 -20 5 -20 10 0 6
-9 10 -20 10 -11 0 -20 5 -20 10 0 6 -9 10 -20 10 -11 0 -20 5 -20 10 0 6 -4
10 -10 10 -14 0 -12 -38 3 -43 7 -2 8 -8 3 -13 -5 -5 -11 -4 -13 4 -3 6 -13
12 -24 12 -10 0 -19 5 -19 10 0 6 -13 10 -30 10 -16 0 -30 5 -30 10 0 6 -13
10 -30 10 -16 0 -30 -4 -30 -10 0 -5 5 -10 10 -10 6 0 10 -9 10 -20 0 -19 -7
-20 -100 -20 -60 0 -100 -4 -100 -10 0 -5 -9 -10 -20 -10 -13 0 -20 -7 -20
-20 0 -15 7 -20 25 -20 14 0 37 -11 50 -25 25 -24 33 -55 15 -55 -5 0 -10 -9
-10 -20 0 -11 5 -20 10 -20 6 0 10 5 10 10 0 6 14 10 30 10 17 0 30 5 30 10 0
16 50 11 68 -7 12 -12 13 -18 4 -21 -14 -4 -16 -42 -2 -42 6 0 10 5 10 10 0 6
14 10 30 10 17 0 30 5 30 10 0 6 18 10 40 10 38 0 40 -2 40 -30 0 -27 3 -30
30 -30 17 0 30 5 30 10 0 6 9 10 20 10 11 0 20 -4 20 -10 0 -5 9 -10 20 -10
16 0 20 -7 20 -30 l0 -30 70 0 c40 0 70 -4 70 -10 0 -6 -37 -10 -90 -10 -53 0
-90 -4 -90 -10 0 -5 5 -10 10 -10 6 0 10 -4 10 -10 0 -5 -22 -10 -50 -10 -27
0 -50 -4 -50 -10 0 -5 -22 -10 -50 -10 -27 0 -50 -4 -50 -10 0 -5 -13 -10 -30
-10 -16 0 -30 -4 -30 -10 0 -5 -9 -10 -20 -10 -11 0 -20 -4 -20 -10 0 -5 14
-10 30 -10 17 0 30 -4 30 -10 0 -5 -9 -10 -20 -10 -11 0 -20 -4 -20 -10 0 -5
-9 -10 -20 -10 -11 0 -20 -4 -20 -10 0 -5 -7 -10 -15 -10 -15 0 -65 -42 -65
-55 0 -3 9 -5 20 -5 11 0 20 -2 20 -6 0 -3 -27 -32 -60 -64 -33 -32 -60 -61
-60 -64 0 -4 9 -6 20 -6 13 0 20 -7 20 -20 0 -11 -4 -20 -10 -20 -5 0 -10 -13
-10 -30 0 -16 -4 -30 -10 -30 -6 0 -10 -33 -10 -80 0 -44 3 -80 6 -80 10 0 34
28 34 40 0 17 26 40 44 40 9 0 16 -4 16 -10 0 -5 9 -10 20 -10 17 0 20 7 20
50 0 28 5 50 10 50 6 0 10 9 10 20 0 13 7 20 20 20 11 0 20 -4 20 -10 0 -5 5
-10 10 -10 6 0 10 9 10 20 0 11 5 20 10 20 6 0 10 14 10 30 0 17 5 30 10 30 6
0 10 7 10 16 0 8 7 22 15 31 14 14 18 13 34 -6 23 -26 31 -27 31 -1 0 11 5 20
10 20 6 0 10 7 10 15 0 14 82 105 95 105 3 0 5 -9 5 -20 0 -11 5 -20 10 -20 6
0 10 5 10 10 0 6 8 10 18 10 10 0 24 9 32 20 8 11 22 20 32 20 10 0 18 5 18
10 0 6 9 10 20 10 11 0 20 5 20 10 0 6 9 10 20 10 11 0 20 5 20 10 0 6 9 10
20 10 11 0 20 -3 20 -6 0 -11 -29 -34 -44 -34 -9 0 -16 -4 -16 -10 0 -5 -7
-10 -16 -10 -9 0 -29 -13 -44 -30 -15 -16 -33 -30 -40 -30 -16 0 -40 -26 -40
-44 0 -19 16 -21 23 -3 2 6 8 9 12 5 8 -8 -39 -58 -55 -58 -14 0 -80 -66 -80
-81 0 -6 -13 -24 -30 -39 -16 -15 -30 -35 -30 -44 0 -9 -4 -16 -10 -16 -5 0
-10 -13 -10 -30 0 -16 -4 -30 -10 -30 -5 0 -10 -4 -10 -10 0 -5 9 -10 20 -10
11 0 20 5 20 10 0 6 5 10 10 10 20 0 9 -33 -20 -60 -16 -15 -30 -34 -30 -42 0
-7 -9 -20 -20 -28 -11 -8 -20 -22 -20 -32 0 -10 -4 -18 -10 -18 -5 0 -10 -9
-10 -20 0 -11 -4 -20 -10 -20 -5 0 -10 -4 -10 -10 0 -5 9 -10 20 -10 11 0 20
5 20 10 0 6 9 10 20 10 11 0 20 5 20 10 0 6 5 10 10 10 6 0 10 -9 10 -20 0
-11 -4 -20 -10 -20 -5 0 -10 -9 -10 -20 0 -11 -4 -20 -10 -20 -5 0 -10 -9 -10
-20 0 -11 -4 -20 -10 -20 -5 0 -10 -9 -10 -20 0 -11 -4 -20 -10 -20 -5 0 -10
-13 -10 -30 0 -16 -4 -30 -10 -30 -5 0 -10 -18 -10 -40 0 -22 5 -40 10 -40 6
0 10 7 10 16 0 15 23 44 34 44 3 0 6 -18 6 -40 0 -22 -4 -40 -10 -40 -6 0 -10
-50 -10 -130 0 -80 4 -130 10 -130 6 0 10 -13 10 -30 0 -16 5 -30 10 -30 6 0
10 14 10 30 0 17 5 30 10 30 6 0 10 23 10 50 0 28 5 50 10 50 6 0 10 14 10 30
0 17 3 30 6 30 13 0 34 -30 34 -50 0 -18 40 -70 55 -70 3 0 5 9 5 20 0 11 -4
20 -10 20 -6 0 -10 40 -10 100 0 93 1 100 20 100 13 0 20 -7 20 -20 0 -13 7
-20 20 -20 19 0 20 7 20 100 0 60 4 100 10 100 6 0 10 27 10 60 0 33 4 60 10
60 6 0 10 9 10 20 0 11 5 20 10 20 6 0 10 -9 10 -20 0 -11 5 -20 10 -20 6 0
10 -9 10 -20 0 -11 5 -20 10 -20 6 0 10 18 10 40 0 22 5 40 10 40 6 0 10 23
10 50 0 28 5 50 10 50 6 0 10 14 10 30 0 17 5 30 10 30 6 0 10 14 10 30 0 36
6 37 31 9 28 -33 49 -5 49 65 0 31 5 56 10 56 6 0 10 18 10 40 0 22 5 40 10
40 6 0 10 14 10 30 0 23 4 30 20 30 16 0 20 -7 20 -30 0 -16 5 -30 10 -30 6 0
10 -13 10 -30 0 -16 5 -30 10 -30 6 0 10 -13 10 -30 0 -16 5 -30 10 -30 6 0
10 -18 10 -40 0 -22 5 -40 10 -40 6 0 10 -13 10 -30 0 -16 5 -30 10 -30 6 0
10 -13 10 -30 0 -16 5 -30 10 -30 6 0 10 -18 10 -40 0 -22 5 -40 10 -40 6 0
10 -18 10 -40 0 -22 5 -40 10 -40 6 0 10 -18 10 -40 0 -22 5 -40 10 -40 6 0
10 -18 10 -40 0 -22 5 -40 10 -40 6 0 10 -22 10 -50 0 -27 5 -50 10 -50 6 0
10 -22 10 -50 0 -27 5 -50 10 -50 6 0 10 -27 10 -60 0 -33 4 -60 10 -60 6 0
10 -30 10 -70 0 -40 4 -70 10 -70 6 0 10 -33 10 -80 0 -47 4 -80 10 -80 6 0
10 -43 10 -109 0 -78 4 -111 13 -114 9 -4 8 -8 -3 -17 -11 -9 -12 -13 -2 -17
14 -6 17 -83 2 -83 -5 0 -10 14 -10 30 0 17 -4 30 -10 30 -5 0 -10 14 -10 30
0 17 -4 30 -10 30 -5 0 -10 14 -10 30 0 17 -4 30 -10 30 -5 0 -10 -13 -10 -30
0 -16 5 -30 10 -30 6 0 10 -18 10 -40 0 -22 5 -40 10 -40 6 0 10 -18 10 -40 0
-22 5 -40 10 -40 6 0 10 -18 10 -40 0 -22 -3 -40 -6 -40 -11 0 -34 29 -34 44
0 9 -4 16 -10 16 -5 0 -10 18 -10 40 0 22 -4 40 -10 40 -5 0 -10 23 -10 50 0
28 -4 50 -10 50 -5 0 -10 14 -10 30 0 17 -4 30 -10 30 -5 0 -10 -4 -10 -10 0
-5 -4 -10 -10 -10 -5 0 -10 18 -10 40 0 22 -4 40 -10 40 -5 0 -10 14 -10 30 0
17 -4 30 -10 30 -5 0 -10 18 -10 40 0 22 -4 40 -10 40 -5 0 -10 -22 -10 -50 0
-27 5 -50 10 -50 6 0 10 -27 10 -60 0 -33 4 -60 10 -60 6 0 10 -22 10 -50 0
-27 5 -50 10 -50 15 0 12 -77 -2 -84 -10 -5 -10 -7 0 -12 6 -3 12 -23 12 -45
0 -21 5 -39 10 -39 6 0 10 -9 10 -20 0 -11 5 -20 10 -20 6 0 10 -13 10 -30 0
-16 5 -30 10 -30 6 0 10 -9 10 -20 0 -17 -7 -20 -40 -20 -22 0 -40 5 -40 10 0
6 -9 10 -20 10 -13 0 -20 -7 -20 -20 0 -11 5 -20 10 -20 6 0 10 -13 10 -30 0
-16 5 -30 10 -30 6 0 10 -4 10 -10 0 -5 -8 -10 -18 -10 -10 0 -24 -9 -32 -20
-8 -11 -22 -20 -32 -20 -10 0 -18 -4 -18 -10 0 -5 -9 -10 -20 -10 -11 0 -20
-2 -20 -5 0 -12 90 -95 103 -95 7 0 19 -9 27 -20 8 -11 21 -20 30 -20 9 0 22
-9 30 -20 8 -11 22 -20 32 -20 10 0 18 -4 18 -10 0 -5 9 -10 20 -10 11 0 20
-4 20 -10 0 -5 9 -10 20 -10 11 0 20 -4 20 -10 0 -5 9 -10 20 -10 11 0 20 -4
20 -10 0 -5 9 -10 20 -10 11 0 20 -4 20 -10 0 -5 14 -10 30 -10 17 0 30 -4 30
-10 0 -5 14 -10 30 -10 17 0 30 -4 30 -10 0 -5 14 -10 30 -10 17 0 30 -4 30
-10 0 -5 14 -10 30 -10 17 0 30 -4 30 -10 0 -5 23 -10 50 -10 28 0 50 -4 50
-10 0 -6 27 -10 60 -10 33 0 60 -4 60 -10 0 -6 43 -10 110 -10 67 0 110 -4
110 -10 0 -15 129 -12 240 4 159 24 250 35 350 41 52 4 117 13 144 21 27 8 63
14 78 14 17 0 27 4 23 10 -3 5 -65 49 -137 96 -72 47 -144 99 -159 115 -15 16
-34 29 -43 29 -9 0 -16 5 -16 10 0 6 -9 10 -20 10 -11 0 -20 5 -20 10 0 6 -13
10 -30 10 -16 0 -30 5 -30 10 0 6 -13 10 -30 10 -16 0 -30 5 -30 10 0 6 -18
10 -40 10 -22 0 -40 5 -40 10 0 6 -33 10 -80 10 -47 0 -80 4 -80 10 0 6 -18
10 -40 10 -22 0 -40 5 -40 10 0 6 -13 10 -30 10 -16 0 -30 5 -30 10 0 6 -9 10
-20 10 -13 0 -20 7 -20 20 0 11 -4 20 -10 20 -5 0 -10 9 -10 20 0 11 -4 20
-10 20 -5 0 -10 9 -10 20 0 11 -4 20 -10 20 -5 0 -10 9 -10 20 0 11 -4 20 -10
20 -5 0 -10 9 -10 20 0 11 -4 20 -10 20 -5 0 -10 9 -10 20 0 11 -4 20 -10 20
-5 0 -10 9 -10 20 0 11 -4 20 -10 20 -5 0 -10 7 -10 16 0 15 -23 44 -34 44 -3
0 -6 -8 -6 -18 0 -10 -9 -24 -20 -32 -11 -8 -20 -22 -20 -32 0 -22 -7 -23 -26
-4 -16 17 -19 46 -4 46 6 0 10 9 10 20 0 11 5 20 10 20 6 0 10 14 10 30 0 17
5 30 10 30 6 0 10 9 10 20 0 11 5 20 10 20 6 0 10 9 10 20 0 11 5 20 10 20 6
0 10 9 10 20 0 11 5 20 10 20 6 0 10 9 10 20 0 11 5 20 10 20 6 0 10 9 10 20
0 11 5 20 10 20 6 0 10 8 10 18 0 10 9 24 20 32 11 8 20 22 20 32 0 10 5 18
10 18 6 0 10 9 10 20 0 11 5 20 10 20 6 0 10 8 10 18 0 10 9 24 20 32 11 8 20
21 20 30 0 9 9 22 20 30 11 8 20 21 20 30 0 9 9 22 20 30 11 8 20 21 20 28 0
8 14 27 30 42 17 15 30 33 30 40 0 7 14 25 30 40 17 15 30 33 30 39 0 12 44
61 55 61 3 0 5 -22 5 -50 0 -27 -4 -50 -10 -50 -5 0 -10 -18 -10 -40 0 -33 3
-40 20 -40 19 0 20 -7 20 -90 0 -53 4 -90 10 -90 6 0 10 5 10 10 0 6 5 10 10
10 6 0 10 -18 10 -40 0 -22 -4 -40 -10 -40 -5 0 -10 -22 -10 -50 0 -27 -4 -50
-10 -50 -5 0 -10 -13 -10 -30 0 -23 4 -30 20 -30 13 0 20 -7 20 -20 0 -11 -4
-20 -10 -20 -5 0 -10 -13 -10 -30 0 -16 -4 -30 -10 -30 -5 0 -10 -9 -10 -20 0
-26 12 -26 30 0 24 33 30 23 30 -50 0 -40 4 -70 10 -70 6 0 10 9 10 20 0 11 5
20 10 20 6 0 10 9 10 20 0 11 5 20 10 20 6 0 10 14 10 30 0 17 5 30 10 30 6 0
10 18 10 40 0 33 3 40 20 40 19 0 20 7 20 90 0 53 4 90 10 90 6 0 10 -4 10
-10 0 -5 9 -10 20 -10 11 0 20 5 20 10 0 6 -4 10 -10 10 -5 0 -10 18 -10 40 0
22 -4 40 -10 40 -5 0 -10 14 -10 30 0 23 4 30 20 30 11 0 20 5 20 10 0 6 -4
10 -10 10 -5 0 -10 18 -10 40 0 22 -4 40 -10 40 -5 0 -10 9 -10 20 0 11 -4 20
-10 20 -5 0 -10 9 -10 20 0 11 -4 20 -10 20 -5 0 -10 21 -10 46 0 38 -5 51
-30 74 -16 15 -30 34 -30 40 0 7 -10 21 -22 31 -11 11 -19 22 -15 25 7 8 57
-41 57 -56 0 -21 69 -80 95 -80 18 0 25 -5 25 -20 0 -11 5 -20 10 -20 6 0 10
-13 10 -30 0 -23 4 -30 20 -30 17 0 20 -7 20 -50 0 -43 3 -50 20 -50 18 0 20
-7 20 -60 0 -33 4 -60 10 -60 6 0 10 5 10 10 0 6 5 10 10 10 6 0 10 -9 10 -20
0 -11 5 -20 10 -20 6 0 10 -9 10 -20 0 -11 5 -20 10 -20 6 0 10 14 10 30 0 17
5 30 10 30 6 0 10 27 10 60 0 33 4 60 10 60 6 0 10 9 10 20 0 11 -4 20 -10 20
-5 0 -10 9 -10 19 0 11 -6 22 -12 25 -10 5 -10 7 0 12 21 10 13 35 -20 66 -24
22 -29 31 -18 38 10 6 7 14 -13 34 -14 14 -33 26 -42 26 -8 0 -15 5 -15 10 0
6 -9 10 -20 10 -11 0 -20 5 -20 10 0 6 -9 10 -20 10 -13 0 -20 7 -20 20 0 13
-7 20 -20 20 -11 0 -20 5 -20 10 0 6 9 10 20 10 13 0 20 7 20 20 0 13 7 20 20
20 11 0 20 -4 20 -10 0 -5 14 -10 30 -10 17 0 30 5 30 10 0 18 35 11 50 -10 8
-11 22 -20 32 -20 11 0 18 7 18 20 0 11 5 20 10 20 6 0 10 -4 10 -10 0 -5 8
-10 18 -10 10 0 24 -9 32 -20 20 -28 30 -25 30 10 0 28 2 30 40 30 33 0 40 3
40 20 0 13 -7 20 -20 20 -11 0 -20 5 -20 10 0 6 -9 10 -20 10 -11 0 -20 5 -20
10 0 6 -7 10 -16 10 -9 0 -29 14 -44 30 -27 29 -60 40 -60 20 0 -5 -9 -10 -20
-10 -11 0 -20 5 -20 10 0 6 5 10 10 10 6 0 10 5 10 10 0 6 -18 10 -40 10 -22
0 -40 -4 -40 -10 0 -5 -4 -10 -10 -10 -5 0 -10 9 -10 20 0 16 -7 20 -30 20
-16 0 -30 -4 -30 -10 0 -5 -8 -10 -18 -10 -10 0 -24 -9 -32 -20 -16 -22 -46
-27 -52 -8 -3 8 -26 -9 -56 -40 -59 -60 -82 -66 -82 -22 0 17 -4 30 -10 30 -5
0 -10 9 -10 20 0 11 -4 20 -10 20 -5 0 -10 17 -10 38 0 52 -49 122 -86 122
-26 0 -54 20 -54 40 0 16 -70 83 -78 75 -4 -4 -1 -10 6 -12 18 -7 15 -23 -6
-23 -10 0 -24 9 -32 20 -8 11 -22 20 -32 20 -10 0 -18 5 -18 10 0 6 -9 10 -20
10 -11 0 -20 -4 -20 -10 0 -5 -13 -10 -30 -10 -16 0 -30 5 -30 10 0 6 -18 10
-40 10 -22 0 -40 5 -40 10 0 6 -7 10 -16 10 -9 0 -29 14 -44 30 -15 17 -35 30
-44 30 -9 0 -16 5 -16 10 0 6 -9 10 -20 10 -11 0 -20 5 -20 10 0 6 -18 10 -40
10 -22 0 -40 5 -40 10 0 6 -13 10 -30 10 -16 0 -30 5 -30 10 0 6 -13 10 -30
10 -35 0 -38 10 -10 30 11 8 20 18 20 22 0 4 -9 8 -20 8 -11 0 -20 5 -20 10 0
6 -9 10 -20 10 -11 0 -20 5 -20 10 0 6 -9 10 -20 10 -11 0 -20 5 -20 10 0 6
-13 10 -30 10 -16 0 -30 5 -30 10 0 6 -13 10 -30 10 -16 0 -30 5 -30 10 0 6
14 10 30 10 17 0 30 -4 30 -10 0 -5 18 -10 40 -10 22 0 40 -4 40 -10 0 -5 14
-10 30 -10 17 0 30 -4 30 -10 0 -5 9 -10 20 -10 11 0 20 -4 20 -10 0 -5 14
-10 30 -10 27 0 30 3 30 30 0 28 2 30 40 30 22 0 40 -4 40 -10 0 -5 8 -10 18
-10 10 0 24 -9 32 -20 8 -11 21 -20 30 -20 9 0 22 -9 30 -20 8 -11 22 -20 32
-20 14 0 18 8 18 40 0 22 5 40 10 40 6 0 10 -4 10 -10 0 -5 8 -10 18 -10 10 0
24 -9 32 -20 8 -11 21 -20 28 -20 8 0 27 -13 42 -30 27 -29 60 -40 60 -20 0 6
-4 10 -10 10 -5 0 -10 14 -10 30 0 23 4 30 20 30 11 0 20 -4 20 -10 0 -5 7
-10 16 -10 8 0 37 -22 64 -50 27 -27 51 -50 54 -50 3 0 6 23 6 50 0 43 3 50
20 50 11 0 20 -4 20 -10 0 -5 9 -10 20 -10 11 0 20 -4 20 -10 0 -5 9 -10 20
-10 11 0 20 -4 20 -10 0 -5 9 -10 20 -10 11 0 20 5 20 10 0 6 -4 10 -10 10 -5
0 -10 7 -10 15 0 9 -31 47 -70 85 -38 38 -70 72 -70 75 0 3 14 5 30 5 17 0 30
3 30 6 0 11 -29 34 -44 34 -9 0 -16 5 -16 10 0 6 -18 10 -40 10 -22 0 -40 5
-40 10 0 6 -37 10 -90 10 -53 0 -90 4 -90 10 0 6 -9 10 -20 10 -11 0 -20 5
-20 10 0 6 5 10 10 10 6 0 10 9 10 20 0 17 -7 20 -40 20 -22 0 -40 -4 -40 -10
0 -5 -13 -10 -30 -10 -16 0 -30 -4 -30 -10 0 -5 -13 -10 -30 -10 -16 0 -30 -4
-30 -10 0 -5 -4 -10 -10 -10 -5 0 -10 9 -10 20 0 11 5 20 10 20 6 0 10 5 10
10 0 6 -33 10 -80 10 -47 0 -80 -4 -80 -10 0 -5 -13 -10 -30 -10 -16 0 -30 -4
-30 -10 0 -5 -9 -10 -20 -10 -11 0 -20 -4 -20 -10 0 -5 -9 -10 -20 -10 -11 0
-20 5 -20 10 0 6 5 10 10 10 6 0 10 5 10 10 0 6 -18 10 -40 10 -22 0 -40 -4
-40 -10 0 -5 -18 -10 -40 -10 -22 0 -40 -4 -40 -10 0 -5 -13 -10 -30 -10 -16
0 -30 5 -30 10 0 6 9 10 20 10 11 0 20 5 20 10 0 6 9 10 20 10 11 0 20 5 20
10 0 6 9 10 20 10 11 0 20 5 20 10 0 6 14 10 30 10 17 0 30 5 30 10 0 6 9 10
20 10 11 0 20 5 20 10 0 6 14 10 30 10 17 0 30 5 30 10 0 6 9 10 20 10 11 0
20 5 20 10 0 6 -4 10 -10 10 -5 0 -10 5 -10 10 0 6 14 10 30 10 17 0 30 5 30
10 0 6 33 10 80 10 47 0 80 -4 80 -10 0 -5 9 -10 20 -10 13 0 20 7 20 20 0 11
-4 20 -10 20 -5 0 -10 5 -10 10 0 6 18 10 40 10 22 0 40 -4 40 -10 0 -5 14
-10 30 -10 17 0 30 -4 30 -10 0 -5 14 -10 30 -10 17 0 30 -4 30 -10 0 -5 9
-10 20 -10 11 0 20 5 20 10 0 6 -4 10 -10 10 -5 0 -10 5 -10 10 0 6 18 10 40
10 22 0 40 -4 40 -10 0 -5 9 -10 20 -10 11 0 20 -4 20 -10 0 -5 9 -10 20 -10
11 0 20 -4 20 -10 0 -5 9 -10 20 -10 11 0 20 -4 20 -10 0 -5 9 -10 20 -10 13
0 20 7 20 20 0 17 7 20 40 20 22 0 40 -4 40 -10 0 -5 14 -10 30 -10 17 0 30
-4 30 -10 0 -5 9 -10 20 -10 11 0 20 2 20 5 0 13 -71 75 -85 75 -8 0 -15 5
-15 10 0 6 -8 10 -18 10 -10 0 -24 9 -32 20 -8 11 -22 20 -32 20 -10 0 -18 5
-18 10 0 6 -9 10 -20 10 -11 0 -20 5 -20 10 0 6 -9 10 -20 10 -11 0 -20 5 -20
10 0 6 -7 10 -16 10 -15 0 -44 23 -44 34 0 3 9 6 20 6 11 0 20 5 20 10 0 6
-22 10 -50 10 -27 0 -50 5 -50 10 0 6 -37 10 -90 10 -53 0 -90 4 -90 10 0 6 9
10 20 10 13 0 20 7 20 20 0 11 -4 20 -10 20 -5 0 -10 -4 -10 -10 0 -5 -18 -10
-40 -10 -22 0 -40 -4 -40 -10 0 -5 -18 -10 -40 -10 -22 0 -40 -4 -40 -10 0 -5
-9 -10 -20 -10 -13 0 -20 7 -20 20 0 11 5 20 10 20 6 0 10 5 10 10 0 6 -9 10
-20 10 -11 0 -20 -4 -20 -10z m-640 -440 c0 -5 -9 -10 -20 -10 -11 0 -20 5
-20 10 0 6 9 10 20 10 11 0 20 -4 20 -10z m300 -160 c0 -5 -4 -10 -10 -10 -5
0 -10 5 -10 10 0 6 5 10 10 10 6 0 10 -4 10 -10z m-35 -165 c19 -19 35 -39 35
-46 0 -6 14 -24 30 -39 17 -15 30 -33 30 -40 0 -7 14 -25 30 -40 17 -15 30
-35 30 -44 0 -9 8 -16 20 -16 17 0 20 7 20 40 0 30 4 40 16 40 19 0 44 -24 44
-42 0 -8 9 -20 20 -28 11 -8 20 -22 20 -32 0 -10 5 -18 10 -18 6 0 10 -9 10
-20 0 -11 5 -20 10 -20 6 0 10 -13 10 -30 0 -16 5 -30 10 -30 6 0 10 -8 10
-18 0 -10 9 -24 20 -32 25 -18 26 -50 2 -50 -10 0 -24 -9 -32 -20 -8 -11 -22
-20 -32 -20 -10 0 -18 -4 -18 -10 0 -5 -9 -10 -20 -10 -11 0 -20 -4 -20 -10 0
-6 27 -10 60 -10 52 0 60 -2 60 -19 0 -11 -6 -21 -12 -24 -8 -2 -9 -8 -4 -13
5 -5 11 -4 13 4 3 6 18 12 34 12 16 0 29 5 29 10 0 6 9 10 20 10 16 0 20 -7
20 -30 0 -23 4 -30 20 -30 11 0 20 5 20 10 0 6 5 10 10 10 6 0 10 -13 10 -30
0 -16 5 -30 10 -30 6 0 10 -29 10 -66 0 -67 -13 -94 -44 -94 -19 0 -22 -36 -4
-42 8 -3 -9 -26 -40 -56 -28 -28 -52 -57 -52 -66 0 -8 -6 -17 -12 -19 -10 -4
-9 -8 2 -17 11 -9 12 -13 3 -17 -7 -2 -13 -12 -13 -22 0 -9 -9 -23 -20 -31
-11 -8 -20 -22 -20 -32 0 -10 -4 -18 -10 -18 -5 0 -10 -4 -10 -10 0 -5 9 -10
20 -10 16 0 20 -7 20 -30 0 -16 -4 -30 -10 -30 -5 0 -10 -13 -10 -30 0 -16 5
-30 10 -30 6 0 10 -9 10 -20 0 -11 -4 -20 -10 -20 -5 0 -10 -13 -10 -30 0 -16
-4 -30 -10 -30 -5 0 -10 9 -10 20 0 11 -4 20 -10 20 -6 0 -10 40 -10 100 0 60
-4 100 -10 100 -5 0 -10 14 -10 30 0 17 -4 30 -10 30 -5 0 -10 18 -10 40 0 22
5 40 10 40 6 0 10 9 10 20 0 11 -4 20 -10 20 -5 0 -10 14 -10 30 0 17 -4 30
-10 30 -5 0 -10 9 -10 19 0 11 -6 22 -12 25 -10 5 -10 7 0 12 14 7 17 84 2 84
-5 0 -10 9 -10 20 0 11 -4 20 -10 20 -5 0 -10 9 -10 20 0 11 -4 20 -10 20 -14
0 -12 37 3 44 10 5 10 7 0 12 -7 3 -13 19 -13 35 0 16 -4 29 -10 29 -5 0 -10
9 -10 20 0 11 -4 20 -10 20 -6 0 -10 26 -10 58 0 46 -4 60 -20 72 -11 8 -20
22 -20 32 0 10 -4 18 -10 18 -14 0 -12 37 3 44 10 5 10 7 0 12 -7 3 -13 14
-13 25 0 10 -4 19 -10 19 -5 0 -10 9 -10 20 0 11 -4 20 -10 20 -5 0 -10 23
-10 50 0 28 -4 50 -10 50 -5 0 -10 8 -10 18 0 10 -9 24 -20 32 -11 8 -20 21
-20 30 0 9 -9 22 -20 30 -19 13 -27 30 -15 30 3 0 21 -16 40 -35z m581 -159
c20 -21 18 -26 -12 -26 -23 0 -54 20 -54 34 0 12 52 5 66 -8z m174 -176 c17
-18 38 -30 54 -30 14 0 26 -4 26 -10 0 -5 9 -10 20 -10 11 0 20 -4 20 -10 0
-5 9 -10 20 -10 11 0 20 -7 20 -15 0 -9 32 -48 71 -86 39 -39 68 -73 64 -77
-4 -4 -10 -1 -12 6 -3 6 -12 12 -22 12 -9 0 -23 9 -31 20 -16 22 -46 27 -53 8
-2 -8 -15 -1 -34 20 -17 17 -38 32 -47 32 -9 0 -16 5 -16 10 0 6 -9 10 -20 10
-11 0 -20 5 -20 10 0 6 -9 10 -20 10 -13 0 -20 -7 -20 -20 0 -11 -4 -20 -8
-20 -4 0 -14 9 -22 20 -8 11 -20 20 -28 20 -18 0 -82 66 -82 85 0 8 -4 15 -10
15 -5 0 -10 5 -10 10 0 6 9 10 20 10 11 0 20 -4 20 -10 0 -5 9 -10 20 -10 11
0 20 5 20 10 0 6 -4 10 -10 10 -5 0 -10 5 -10 10 0 6 16 10 36 10 27 0 43 -7
64 -30z m-334 -24 c22 -23 18 -66 -6 -66 -17 0 -20 7 -20 40 0 43 4 47 26 26z
m354 -276 c0 -29 1 -30 50 -30 28 0 50 -4 50 -10 0 -5 -13 -10 -30 -10 -16 0
-30 -4 -30 -10 0 -5 5 -10 10 -10 6 0 10 -4 10 -10 0 -16 -109 -12 -126 4 -17
18 -18 72 -1 91 6 8 24 14 40 15 23 0 27 -4 27 -30z m540 0 c0 -5 -13 -10 -30
-10 -16 0 -30 5 -30 10 0 6 14 10 30 10 17 0 30 -4 30 -10z m-380 -20 c0 -5
-9 -10 -20 -10 -11 0 -20 5 -20 10 0 6 9 10 20 10 11 0 20 -4 20 -10z m40
-138 c0 -4 -9 -14 -20 -22 -11 -8 -20 -21 -20 -28 0 -8 -13 -27 -30 -42 -16
-15 -30 -34 -30 -42 0 -7 -9 -20 -20 -28 -11 -8 -20 -21 -20 -28 0 -8 -13 -27
-30 -42 -16 -15 -30 -34 -30 -42 0 -7 -9 -20 -20 -28 -11 -8 -20 -21 -20 -28
0 -8 -13 -27 -30 -42 -16 -15 -30 -35 -30 -44 0 -9 -4 -16 -10 -16 -5 0 -10
-12 -10 -26 0 -17 -14 -39 -40 -64 -40 -39 -50 -65 -27 -73 7 -2 0 -15 -20
-34 -18 -17 -33 -38 -33 -47 0 -9 -4 -16 -10 -16 -5 0 -10 -13 -10 -30 0 -16
-4 -30 -10 -30 -5 0 -10 -9 -10 -20 0 -11 -4 -20 -10 -20 -6 0 -10 47 -10 120
0 73 -4 120 -10 120 -6 0 -10 -37 -10 -90 0 -53 -4 -90 -10 -90 -6 0 -10 -30
-10 -70 0 -40 -4 -70 -10 -70 -5 0 -10 -13 -10 -30 0 -16 -4 -30 -10 -30 -6 0
-10 43 -10 110 0 67 4 110 10 110 6 0 10 30 10 70 0 40 -4 70 -10 70 -6 0 -10
27 -10 60 0 33 4 60 10 60 6 0 10 14 10 30 0 17 5 30 10 30 6 0 10 -4 10 -10
0 -5 5 -10 10 -10 6 0 10 9 10 20 0 11 5 20 10 20 6 0 10 14 10 30 0 17 5 30
10 30 6 0 10 9 10 20 0 16 7 20 30 20 23 0 30 4 30 20 0 11 5 20 10 20 6 0 10
7 10 15 0 15 42 65 55 65 3 0 5 -13 5 -30 0 -16 5 -30 10 -30 6 0 10 8 10 18
0 10 9 24 20 32 11 8 20 20 20 28 0 17 24 42 40 42 7 0 25 14 40 30 15 17 31
30 34 30 3 0 6 -13 6 -30 0 -16 5 -30 10 -30 6 0 10 5 10 10 0 6 8 10 18 10
10 0 24 9 32 20 8 11 21 20 30 20 9 0 22 9 30 20 15 20 30 27 30 12z"/>
<path d="M1750 1190 c0 -11 5 -20 10 -20 6 0 10 9 10 20 0 11 -4 20 -10 20 -5
0 -10 -9 -10 -20z"/>
<path d="M1410 1140 c0 -5 5 -10 10 -10 6 0 10 5 10 10 0 6 -4 10 -10 10 -5 0
-10 -4 -10 -10z"/>
<path d="M1310 940 c0 -5 5 -10 10 -10 6 0 10 5 10 10 0 6 -4 10 -10 10 -5 0
-10 -4 -10 -10z"/>
</g>
</svg>
